<svg id="Ebene_1" data-name="Ebene 1" xmlns="http://www.w3.org/2000/svg" viewBox="0 0 520.63 186.9"><defs><style>.cls-1,.cls-2{fill:#ea527e;}.cls-2,.cls-4{fill-rule:evenodd;}.cls-3,.cls-4{fill:#d63157;}.cls-5,.cls-6{fill:none;stroke-linecap:round;stroke-miterlimit:3.86;stroke-width:10px;}.cls-5{stroke:#d63157;}.cls-6{stroke:#ea527e;}.cls-7{font-size:39px;fill:#3c3c3b;font-family:MyriadPro-Regular, Myriad Pro;}.cls-8{letter-spacing:0.01em;}.cls-9{letter-spacing:-0.01em;}.cls-10{letter-spacing:0.02em;}.cls-11{letter-spacing:-0.04em;}.cls-12{letter-spacing:0.01em;}</style></defs><path class="cls-1" d="M74.81,144.25V123.42c0-5.24-3.63-9.43-10.69-9.43-4.9,0-7.94,1.38-9.81,3-1.71-1.66-4.52-3-9.43-3-5.18,0-8.7.72-12,2.21v28.05h8.6V119.94a9.08,9.08,0,0,1,3.47-.55c3,0,4.63,1.55,4.63,3.92v20.94h8.6V120.83a5,5,0,0,1,3.75-1.44c3,0,4.3,1.77,4.3,4v20.83Z" transform="translate(-32.87 -25.13)"/><path class="cls-2" d="M89.8,106a4.61,4.61,0,1,0-4.58,4c2.54,0,4.58-1.76,4.58-4Zm-.28,38.25V114.54h-8.6v29.71Z" transform="translate(-32.87 -25.13)"/><path class="cls-1" d="M110.56,143.87v-5.29a5.31,5.31,0,0,1-1.82.33c-1.93,0-2.76-1.22-2.76-3.48V120.11h4.58v-5.57H106V106l-8.6,2.2v6.34H94.13v5.57h3.25v16c0,4.58,2.71,8.6,8.93,8.6a10.71,10.71,0,0,0,4.25-.82Z" transform="translate(-32.87 -25.13)"/><path class="cls-2" d="M139.47,129.87c.39-10-4-15.88-12.56-15.88s-13.4,6-13.4,15.32c0,9.49,5.24,15.49,14.33,15.49a23.14,23.14,0,0,0,10.64-2.15l-1.93-5.34a17.28,17.28,0,0,1-7.72,1.6c-4.35,0-6.55-2.15-7.16-6.51l17.8-2.53Zm-8-3.2-10.36,1.54c-.28-6.12,1.93-9.15,5.45-9.15,3.15,0,4.91,2.32,4.91,7.61Z" transform="translate(-32.87 -25.13)"/><path class="cls-2" d="M153.4,106a4.61,4.61,0,0,0-9.15,0c0,2.26,2,4,4.58,4a4.29,4.29,0,0,0,4.57-4Zm-.27,38.25V114.54h-8.6v29.71Z" transform="translate(-32.87 -25.13)"/><path class="cls-1" d="M184.47,144.25V123.42c0-5.4-3.36-9.43-12.79-9.43a31,31,0,0,0-12.45,2.21v28.05h8.59V119.94a10.19,10.19,0,0,1,3.64-.6c3.47,0,4.41,2,4.41,4.13v20.78Z" transform="translate(-32.87 -25.13)"/><path class="cls-2" d="M213.67,142.6V124.85c0-8-5-10.86-11.68-10.86a28.46,28.46,0,0,0-11.19,2.26l1.87,4.91a19.67,19.67,0,0,1,7.72-1.82c3.14,0,5.24.88,5.24,4v1.37c-8.93.83-16.6,3.09-16.6,10.75,0,6.18,4.41,9.37,13,9.37,5.13,0,9.15-.88,11.63-2.2Zm-8-3.14a7.39,7.39,0,0,1-3.15.6c-3.41,0-5.4-1.48-5.4-5,0-4.74,3.36-5.95,8.55-6.45v10.81Z" transform="translate(-32.87 -25.13)"/><path class="cls-1" d="M244.85,144.25V123.42c0-5.4-3.36-9.43-12.78-9.43a31,31,0,0,0-12.46,2.21v28.05h8.6V119.94a10.15,10.15,0,0,1,3.64-.6c3.47,0,4.4,2,4.4,4.13v20.78Z" transform="translate(-32.87 -25.13)"/><path class="cls-2" d="M275.71,142.6V101h-8.54v13.73a18,18,0,0,0-4.36-.5c-7.66,0-13.06,5.84-13.06,15.38,0,9.92,5.62,15.21,14.61,15.21,5.12,0,8.65-.77,11.35-2.2Zm-8.54-3.69a5.76,5.76,0,0,1-2.65.44c-4.35,0-6.28-3.7-6.28-10.15,0-6.11,1.82-10.19,6.56-10.19a8,8,0,0,1,2.37.33v19.57Z" transform="translate(-32.87 -25.13)"/><path class="cls-2" d="M306.56,129.87c.38-10-4-15.88-12.57-15.88s-13.39,6-13.39,15.32c0,9.49,5.23,15.49,14.33,15.49a23.12,23.12,0,0,0,10.63-2.15l-1.92-5.34a17.32,17.32,0,0,1-7.72,1.6c-4.36,0-6.56-2.15-7.17-6.51l17.81-2.53Zm-8-3.2-10.36,1.54c-.27-6.12,1.93-9.15,5.46-9.15,3.14,0,4.9,2.32,4.9,7.61Z" transform="translate(-32.87 -25.13)"/><path class="cls-1" d="M327.38,114.1c-8-.38-12.62.5-15.93,2.1v28.05h8.6V120a7.43,7.43,0,0,1,5.73.16l1.6-6.06Z" transform="translate(-32.87 -25.13)"/><polygon class="cls-3" points="306.56 119.12 306.56 75.85 297.96 75.85 297.96 119.12 306.56 119.12 306.56 119.12"/><path class="cls-4" d="M370.44,129.87c.39-10-4-15.88-12.56-15.88s-13.4,6-13.4,15.32c0,9.49,5.24,15.49,14.33,15.49a23.14,23.14,0,0,0,10.64-2.15l-1.93-5.34a17.27,17.27,0,0,1-7.71,1.6c-4.36,0-6.56-2.15-7.17-6.51l17.8-2.53Zm-8-3.2-10.36,1.54c-.28-6.12,1.93-9.15,5.46-9.15,3.14,0,4.9,2.32,4.9,7.61Z" transform="translate(-32.87 -25.13)"/><path class="cls-4" d="M401.3,128.54c0-8.76-4.85-14.38-11.85-14.38a11.88,11.88,0,0,0-5.52,1.1V101h-8.59V142.6c2,1.27,5.62,2.2,10.74,2.2,9.76,0,15.22-5.84,15.22-16.26Zm-8.49.55c0,6.67-1.88,10.53-6.23,10.53a7.11,7.11,0,0,1-2.65-.44V119.72a6.14,6.14,0,0,1,3.09-.66c4.58,0,5.79,4.25,5.79,10Z" transform="translate(-32.87 -25.13)"/><path class="cls-4" d="M431.1,129.87c.38-10-4-15.88-12.57-15.88s-13.4,6-13.4,15.32c0,9.49,5.24,15.49,14.34,15.49a23.12,23.12,0,0,0,10.63-2.15l-1.93-5.34a17.23,17.23,0,0,1-7.71,1.6c-4.36,0-6.56-2.15-7.17-6.51l17.81-2.53Zm-8-3.2-10.36,1.54c-.27-6.12,1.93-9.15,5.46-9.15,3.14,0,4.9,2.32,4.9,7.61Z" transform="translate(-32.87 -25.13)"/><path class="cls-3" d="M461.23,144.25V123.42c0-5.4-3.36-9.43-12.78-9.43A31,31,0,0,0,436,116.2v28.05h8.6V119.94a10.13,10.13,0,0,1,3.63-.6c3.48,0,4.41,2,4.41,4.13v20.78Z" transform="translate(-32.87 -25.13)"/><path class="cls-5" d="M521.73,31.77s-37.53-12.3-47.8,30.51m-12.78-4.17s-9.2,41.65,32.34,47.23m-2.87,13.38s37.69,7.29,43.25-32.94" transform="translate(-32.87 -25.13)"/><path class="cls-6" d="M547.25,88.49S557.87,54,517.17,44.93" transform="translate(-32.87 -25.13)"/><text class="cls-7" transform="translate(82 177.15)"><tspan class="cls-8">S</tspan><tspan class="cls-9" x="19.46" y="0">o</tspan><tspan x="40.6" y="0">ziales in</tspan><tspan class="cls-10" x="168.44" y="0">k</tspan><tspan x="187.39" y="0">lusi</tspan><tspan class="cls-11" x="242.66" y="0">v</tspan><tspan x="259.9" y="0">. </tspan><tspan class="cls-12" x="276.24" y="0">S</tspan><tspan x="295.7" y="0">eit 1986.</tspan></text></svg>